<?xml version="1.0" standalone="no"?>
<!DOCTYPE svg PUBLIC "-//W3C//DTD SVG 20010904//EN"
 "http://www.w3.org/TR/2001/REC-SVG-20010904/DTD/svg10.dtd">
<svg version="1.0" xmlns="http://www.w3.org/2000/svg"
 width="1024.000000pt" height="1024.000000pt" viewBox="0 0 1024.000000 1024.000000"
 preserveAspectRatio="xMidYMid meet">

<g transform="translate(0.000000,1024.000000) scale(0.100000,-0.100000)"
fill="#FFF" stroke="none">
<path d="M5060 9029 c-270 -21 -561 -72 -810 -144 -534 -153 -1025 -416 -1415
-756 -365 -318 -733 -811 -946 -1264 -276 -589 -390 -1180 -350 -1820 28 -458
163 -956 377 -1388 35 -71 64 -135 64 -141 0 -20 -117 -26 -539 -26 -365 0
-388 -1 -418 -20 -62 -37 -84 -111 -52 -172 8 -14 128 -151 266 -303 201 -221
251 -280 244 -294 -5 -9 -114 -126 -241 -261 -285 -302 -283 -299 -282 -354 0
-55 14 -82 52 -101 25 -13 106 -15 565 -15 l536 0 67 -40 c37 -23 103 -53 147
-67 l80 -27 485 -6 485 -5 145 -72 c221 -109 492 -208 748 -273 136 -34 468
-92 632 -110 145 -16 618 -17 760 -2 558 61 1011 184 1395 380 l150 76 345 8
c443 10 660 23 733 42 32 9 93 33 135 54 l77 37 556 5 c539 5 558 6 579 25 35
32 52 74 46 111 -7 36 -46 80 -358 408 -98 102 -178 192 -178 200 0 9 78 99
173 202 275 298 355 392 362 422 11 51 -22 109 -80 141 -27 14 -80 16 -470 16
l-440 0 1 30 c2 29 27 99 112 305 203 493 295 1010 279 1565 -13 436 -92 819
-254 1230 -114 288 -249 534 -437 794 l-89 124 16 87 c19 99 22 220 7 302 -48
260 -286 499 -590 596 -131 42 -301 53 -470 30 l-87 -11 -129 65 c-234 119
-482 217 -731 287 -395 111 -863 160 -1253 130z m625 -224 c309 -35 615 -109
875 -213 85 -34 310 -141 310 -148 0 -2 -57 -33 -127 -69 -71 -35 -149 -76
-176 -91 l-47 -27 -98 36 c-384 144 -762 206 -1192 194 -425 -12 -791 -87
-1185 -244 -479 -190 -900 -492 -1285 -918 -91 -101 -123 -130 -144 -131 -14
-1 -34 -8 -43 -15 -23 -20 -45 -77 -38 -100 4 -13 -11 -48 -49 -108 -258 -417
-408 -846 -486 -1388 -9 -66 -5 -61 -212 -297 l-27 -31 -1 123 c-1 348 92 821
231 1173 8 21 19 28 51 32 55 7 90 35 108 86 14 41 14 44 -11 90 l-25 48 25
54 c22 45 31 55 60 60 51 10 73 39 79 101 6 74 56 177 158 326 275 402 620
729 1030 973 151 91 242 136 427 213 582 242 1207 337 1792 271z m1945 -434
c230 -66 386 -184 471 -356 40 -80 43 -94 47 -181 5 -98 -6 -158 -39 -226 -28
-55 -80 -129 -88 -124 -10 7 -11 -9 -20 -274 -8 -245 -26 -373 -55 -403 -7 -7
-13 -14 -13 -17 -1 -19 -16 -50 -24 -50 -5 0 -9 -6 -8 -12 1 -7 -1 -21 -6 -31
-6 -15 -10 -15 -24 -5 -14 12 -15 11 -2 -5 10 -12 11 -21 4 -25 -6 -4 -18 -22
-27 -39 -9 -18 -18 -33 -20 -33 -15 0 -35 14 -31 20 3 5 1 11 -5 15 -10 6 -14
-11 -11 -50 1 -18 1 -19 -9 -2 -6 9 -8 22 -4 29 5 8 2 9 -9 5 -9 -3 -19 -2
-22 4 -4 5 -1 8 6 7 7 -2 13 11 14 35 1 20 -2 37 -7 37 -5 0 -7 -10 -3 -22 5
-22 5 -22 -9 1 -12 22 -12 28 1 48 17 26 28 31 19 8 -3 -10 1 -15 14 -15 12 0
21 10 25 30 6 25 10 30 27 24 17 -5 20 -3 15 11 -4 9 -7 32 -7 51 0 19 -5 34
-11 34 -7 0 -8 -12 -4 -32 4 -18 4 -30 -1 -25 -4 4 -8 53 -9 110 0 92 -4 108
-31 167 -36 76 -97 141 -169 178 -44 24 -61 27 -145 27 -100 0 -158 -18 -209
-66 l-22 -20 -38 30 c-85 68 -132 140 -146 228 l-7 42 84 25 c46 14 123 36
173 50 94 26 125 49 125 90 0 51 -73 103 -128 90 -15 -4 -119 -33 -232 -66
-292 -85 -344 -98 -440 -104 -98 -7 -201 11 -286 50 -77 35 -167 125 -207 205
-30 62 -32 72 -32 176 1 64 6 122 13 139 l12 29 36 -37 c45 -46 94 -71 172
-87 117 -24 226 8 425 125 186 110 381 185 532 205 97 14 267 5 345 -18z
m-1685 -158 c-86 -206 -39 -424 128 -600 39 -40 83 -81 99 -91 15 -9 28 -20
28 -24 0 -4 -18 -36 -41 -70 -63 -97 -107 -198 -136 -305 -22 -84 -25 -120
-26 -248 0 -82 4 -169 10 -192 l11 -43 -183 0 -183 0 -7 -29 c-8 -35 10 -168
27 -208 7 -15 30 -57 51 -92 l38 -64 -59 7 c-205 23 -442 153 -594 327 l-52
59 -223 0 c-249 0 -297 7 -400 57 -87 42 -187 142 -232 231 -60 121 -66 164
-66 527 l0 330 27 73 c14 40 40 95 58 122 45 70 138 153 212 189 124 61 111
60 847 60 637 1 673 0 666 -16z m-2085 -729 c0 -14 -4 -23 -9 -19 -5 3 -12 1
-16 -5 -4 -6 -11 -8 -16 -5 -5 4 -17 1 -26 -5 -17 -10 -17 -10 1 -8 25 4 31
-16 11 -36 -17 -17 -19 -113 -3 -138 6 -10 8 -10 8 0 0 6 9 12 20 12 23 0 39
-45 21 -63 -8 -8 -11 -7 -12 4 0 7 -4 4 -9 -8 -11 -27 -27 -30 -34 -5 -3 12
-4 12 -3 -4 2 -19 -10 -35 -79 -115 -36 -41 -63 -59 -81 -53 -15 5 -15 4 -3
-4 12 -9 10 -13 -13 -21 -15 -6 -35 -8 -44 -5 -14 5 -15 4 -4 -4 16 -12 -3
-27 -21 -16 -7 5 -8 3 -4 -5 5 -8 3 -11 -5 -10 -8 1 -30 -2 -49 -7 -19 -6 -56
-8 -81 -6 -38 3 -49 9 -64 34 -17 29 -18 30 -78 24 -46 -5 -69 -14 -99 -38
-30 -23 -36 -33 -26 -39 9 -6 10 -9 1 -9 -7 0 -15 -11 -19 -25 -3 -14 -10 -25
-15 -25 -10 0 -27 -39 -32 -69 -6 -39 -32 -55 -40 -23 -2 10 -8 1 -16 -25 -10
-36 -16 -43 -36 -43 -20 0 -25 -5 -25 -24 0 -25 -16 -36 -56 -36 -13 0 -24 -4
-24 -10 0 -5 -11 -10 -25 -10 -23 0 -25 -3 -25 -49 0 -27 -3 -63 -6 -80 -5
-24 -3 -31 10 -31 11 0 16 -9 16 -32 0 -36 7 -114 10 -125 1 -5 2 -12 1 -17
-1 -5 4 -5 11 1 7 6 24 13 38 15 16 2 26 10 28 23 8 57 13 69 23 54 16 -26 9
-73 -16 -104 -14 -16 -25 -25 -25 -19 0 17 -38 24 -50 9 -8 -9 -8 -15 0 -18 6
-3 5 -4 -2 -3 -7 2 -12 11 -10 20 2 12 -3 16 -15 14 -14 -2 -17 3 -15 24 1 15
-4 38 -13 51 -8 13 -12 27 -8 32 5 4 3 5 -3 2 -6 -4 -16 14 -23 44 -10 37 -16
48 -24 40 -23 -23 -35 -8 -51 67 -25 115 -23 271 3 353 53 166 155 276 299
323 41 14 93 18 230 20 229 2 253 11 387 135 105 98 142 120 198 121 33 0 37
-3 37 -26z m3022 -89 c11 -94 98 -226 192 -292 l55 -38 1 -63 c0 -99 49 -157
111 -133 38 14 46 30 51 99 4 52 9 67 34 93 74 79 183 80 256 2 80 -84 60
-235 -40 -308 -22 -16 -44 -37 -47 -46 -9 -27 32 -121 95 -215 64 -96 64 -97
-10 -109 -90 -15 -183 -55 -323 -139 -161 -96 -217 -119 -329 -135 -174 -24
-390 44 -516 163 -279 261 -322 735 -98 1074 56 84 49 82 156 63 91 -15 191
-12 285 9 122 27 122 27 127 -25z m1406 -222 c109 -167 288 -515 345 -671 235
-649 283 -1287 147 -1962 -16 -80 -38 -174 -49 -210 l-19 -65 -1 560 c-1 453
-4 578 -16 655 -17 102 -74 284 -106 338 -10 18 -32 88 -48 155 -33 135 -118
394 -175 530 -36 87 -94 205 -158 322 l-33 60 3 218 c2 119 6 217 8 217 3 0
48 -66 102 -147z m-4473 -300 c49 -53 110 -178 130 -268 23 -102 17 -246 -14
-335 -53 -153 -180 -272 -326 -305 -64 -15 -96 -10 -170 25 -11 5 -96 43 -190
85 -239 107 -277 127 -268 136 11 11 6 188 -6 203 -7 8 3 11 32 12 124 3 248
138 264 285 l6 61 49 -5 c120 -15 291 28 391 98 34 23 63 43 64 44 2 0 19 -16
38 -36z m3975 -113 c-17 -32 -20 -20 -7 23 9 28 13 33 15 18 2 -11 -2 -30 -8
-41z m-55 -120 c3 -6 -1 -7 -9 -4 -18 7 -21 14 -7 14 6 0 13 -4 16 -10z m75
-60 c0 -5 -5 -10 -11 -10 -5 0 -7 5 -4 10 3 6 8 10 11 10 2 0 4 -4 4 -10z
m-5034 -167 c2 -36 1 -44 -7 -30 -6 9 -7 22 -4 27 4 6 3 20 -1 33 -7 21 -7 21
-14 3 -6 -19 -7 -19 -12 2 -4 12 -2 20 3 16 5 -3 9 0 9 7 0 10 3 10 11 2 7 -7
13 -33 15 -60z m5139 -198 c141 -37 299 -145 393 -271 88 -117 155 -270 193
-444 14 -64 24 -1366 12 -1439 l-8 -44 -73 2 c-83 3 -96 -2 -82 -29 6 -11 12
-33 14 -50 l3 -30 -233 0 -234 0 0 203 c0 111 -2 434 -4 717 -4 567 -7 592
-66 652 -32 32 -89 39 -110 13 -10 -13 -14 -13 -26 0 -8 8 -14 17 -14 21 1 4
-2 10 -7 13 -5 3 -20 22 -33 41 -40 60 -112 122 -176 151 -86 40 -99 38 -113
-13 -15 -56 -20 -616 -6 -613 6 1 7 0 2 -2 -4 -3 -5 -8 -2 -13 3 -4 -27 8 -66
28 -71 37 -72 37 -198 37 -125 0 -127 -1 -206 -38 -47 -22 -99 -56 -126 -83
l-46 -46 96 194 c53 106 145 293 204 415 156 322 241 441 379 533 142 94 375
136 533 95z m-5081 -154 c55 -27 261 -119 456 -205 195 -85 380 -168 410 -184
58 -30 103 -83 115 -136 6 -28 4 -27 -49 21 -38 35 -86 64 -158 96 -57 25
-204 90 -328 145 -124 55 -254 113 -290 130 -60 28 -144 67 -277 128 -63 29
-70 54 -17 54 23 0 74 -18 138 -49z m2308 11 c11 -41 67 -97 112 -112 20 -6
36 -16 36 -21 0 -5 -19 -18 -43 -28 -50 -22 -95 -71 -104 -113 -9 -46 -21 -43
-46 14 -28 63 -46 79 -109 103 -26 10 -46 20 -44 24 3 4 32 20 65 35 50 24 64
37 81 73 11 23 20 48 20 54 0 23 24 1 32 -29z m-638 -274 c36 -124 89 -177
219 -218 38 -12 67 -23 65 -25 -2 -2 -37 -15 -78 -29 -133 -47 -174 -89 -210
-220 -9 -33 -22 -62 -28 -64 -6 -2 -20 27 -32 67 -39 128 -101 187 -227 218
-40 10 -73 21 -73 25 0 3 30 15 68 27 133 40 204 111 233 235 6 28 14 55 16
59 12 20 27 -5 47 -75z m1834 -15 c3 -21 9 -23 57 -23 51 0 53 -1 57 -30 6
-37 0 -41 -60 -44 -39 -2 -47 -5 -50 -23 -5 -33 -26 -44 -79 -41 -45 3 -48 5
-53 33 -5 28 -8 30 -50 30 -45 0 -45 0 -45 35 0 35 0 35 48 38 37 2 47 7 47
21 0 28 10 32 70 29 48 -3 55 -6 58 -25z m-3864 -65 c14 -20 12 -24 -43 -82
-31 -34 -122 -131 -202 -216 -79 -85 -171 -184 -204 -220 -164 -175 -212 -227
-227 -250 l-17 -25 0 25 c-1 40 33 102 95 176 109 130 562 614 575 614 4 0 15
-10 23 -22z m2981 -99 c15 -55 58 -103 109 -124 25 -11 46 -24 46 -31 0 -6
-23 -21 -51 -32 -59 -25 -90 -59 -104 -116 -16 -59 -41 -60 -56 -2 -6 25 -15
46 -20 46 -5 0 -9 6 -9 13 0 18 -47 51 -95 67 -61 21 -61 26 -3 53 68 32 102
67 124 123 21 54 44 55 59 3z m695 -218 c6 -16 25 -35 41 -41 33 -14 41 -50
11 -50 -20 0 -45 -24 -55 -52 -9 -26 -47 -23 -47 2 0 13 -13 28 -35 41 -41 25
-44 42 -10 57 13 6 31 25 40 42 20 38 39 38 55 1z m-3022 -7 c42 -9 93 -23
112 -31 19 -9 44 -18 55 -20 38 -7 164 -72 217 -111 29 -22 82 -70 118 -107
143 -147 316 -273 462 -337 92 -41 288 -95 357 -100 36 -2 41 -5 42 -27 1 -15
0 -30 -1 -36 -1 -5 -2 -124 -1 -262 l2 -252 -28 -8 c-15 -5 -68 -8 -118 -8
-75 1 -97 5 -130 24 -22 12 -32 20 -22 17 11 -4 16 -2 11 5 -3 6 -15 9 -25 6
-11 -3 -16 -1 -13 4 3 5 -3 12 -13 16 -10 4 -25 15 -33 25 -9 10 -58 29 -120
44 -94 24 -147 43 -287 105 -24 11 -46 19 -50 19 -4 0 -41 16 -83 36 -113 56
-117 57 -131 49 -7 -5 -10 -4 -6 2 14 23 -105 49 -147 33 -32 -12 -35 -3 -3
10 24 10 26 10 -148 15 -123 4 -128 5 -112 24 8 10 9 13 0 8 -6 -4 -14 -3 -18
3 -3 5 -11 10 -17 10 -6 0 -5 -7 3 -17 12 -14 10 -14 -13 1 l-28 18 0 -60 c0
-34 4 -71 10 -84 5 -13 14 -41 19 -63 14 -55 97 -192 146 -240 53 -53 215
-155 285 -179 115 -40 363 -77 382 -58 8 8 11 39 10 87 -3 71 -2 75 18 75 12
0 18 -4 15 -10 -3 -5 -1 -10 4 -10 8 0 11 -82 11 -255 l0 -255 -610 0 -610 0
0 728 c0 728 5 855 36 939 19 51 126 156 203 197 44 24 57 27 73 17 14 -9 17
-8 16 1 -3 10 15 17 75 27 4 0 43 -6 85 -15z m4297 -374 c10 -11 16 -20 13
-20 -3 0 -13 9 -23 20 -10 11 -16 20 -13 20 3 0 13 -9 23 -20z m-204 -71 c33
-18 65 -41 71 -52 7 -14 7 -17 -1 -13 -6 4 -13 -4 -17 -18 -10 -40 -41 -43
-76 -8 -16 17 -35 29 -43 26 -7 -3 -16 0 -20 5 -3 6 -9 9 -13 7 -4 -2 -32 -7
-62 -11 -67 -8 -82 -16 -100 -49 -25 -48 -82 -47 -101 1 -14 38 -5 65 32 92
94 70 222 77 330 20z m-1835 -70 c41 -13 95 -43 160 -89 97 -70 120 -78 197
-72 16 2 17 -12 17 -169 0 -160 -1 -170 -17 -158 -9 8 -62 58 -117 112 -109
105 -185 158 -256 177 -74 20 -160 14 -253 -16 -101 -33 -130 -29 -154 21 -15
31 -15 37 1 79 48 126 227 175 422 115z m1124 -56 c2 -32 3 -105 4 -163 0
-104 0 -105 -30 -135 -99 -98 -289 -160 -471 -154 l-63 2 0 153 0 152 68 7
c111 11 212 35 282 66 65 30 192 107 198 121 7 16 9 7 12 -49z m645 -93 c31
-29 41 -78 25 -125 -22 -66 -120 -92 -174 -46 -60 51 -51 149 16 188 33 19
104 10 133 -17z m-2371 -64 c4 -24 21 -67 39 -97 43 -71 119 -111 210 -111 74
0 78 1 142 32 62 31 124 31 182 2 51 -26 291 -250 316 -295 25 -45 19 -124
-14 -165 -29 -37 -104 -72 -156 -72 -35 -1 -41 -6 -75 -54 -88 -126 -216 -126
-323 0 l-47 54 -67 -6 c-88 -8 -125 9 -212 98 -37 37 -74 68 -83 68 -14 0 -16
29 -16 295 l0 295 49 0 49 0 6 -44z m-1573 -175 c-11 -7 -11 -9 0 -13 8 -3 -8
-4 -35 -4 -27 1 -51 -4 -53 -9 -2 -6 13 -10 36 -10 37 0 39 -1 23 -16 -16 -15
-20 -15 -64 8 -27 13 -48 28 -48 33 0 5 30 11 68 13 37 2 72 4 77 5 6 1 4 -2
-4 -7z m147 -60 c3 -8 -1 -12 -9 -9 -7 2 -15 10 -17 17 -3 8 1 12 9 9 7 -2 15
-10 17 -17z m-123 -31 c21 -16 45 -30 54 -30 13 0 13 2 3 9 -11 6 -10 10 4 15
9 3 19 4 22 1 3 -3 -1 -5 -9 -6 -8 0 0 -5 16 -10 19 -5 31 -5 33 1 2 6 11 10
20 10 13 0 12 -3 -4 -19 -13 -13 -24 -16 -36 -10 -28 15 -43 10 -22 -6 13 -10
5 -9 -26 4 -72 31 -110 52 -110 62 0 16 16 10 55 -21z m270 21 c16 -7 14 -9
-16 -12 -27 -4 -35 -1 -32 8 6 14 18 15 48 4z m-68 -7 c-3 -3 -12 -4 -19 -1
-8 3 -5 6 6 6 11 1 17 -2 13 -5z m83 -44 c0 -5 -4 -10 -10 -10 -5 0 -10 5 -10
10 0 6 5 10 10 10 6 0 10 -4 10 -10z m3295 -153 c93 -89 210 -126 342 -107 41
5 87 18 102 28 14 10 35 18 46 18 20 -1 20 -9 23 -328 l3 -327 -309 1 -309 0
-5 402 c-3 220 -3 407 0 414 3 9 16 0 36 -25 17 -20 49 -55 71 -76z m-3351 91
c-2 -4 4 -9 13 -11 17 -4 7 -3 -55 7 -38 6 -34 13 7 12 22 -1 37 -4 35 -8z
m121 -18 c15 -7 10 -9 -23 -9 -26 -1 -41 3 -37 9 7 12 32 12 60 0z m-26 -26
c9 -8 -45 -2 -64 6 -14 7 -8 8 20 3 22 -3 42 -7 44 -9z m36 -14 c3 -6 -1 -7
-9 -4 -18 7 -21 14 -7 14 6 0 13 -4 16 -10z m4878 -527 l47 -6 0 -108 0 -109
-297 -1 c-353 0 -466 1 -472 6 -4 5 88 144 128 192 l26 32 260 0 c143 0 281
-3 308 -6z m-6477 -426 c4 -3 0 -17 -8 -30 l-16 -23 -366 2 c-383 3 -384 3
-407 47 -10 18 -2 19 390 15 220 -2 403 -7 407 -11z m6235 3 c140 -27 267
-126 333 -261 19 -41 38 -87 41 -104 5 -27 4 -28 -5 -7 -15 35 -93 133 -137
173 -59 53 -131 100 -185 121 -47 18 -147 18 -2962 19 -2830 0 -2915 -1 -2963
-19 -108 -41 -211 -129 -289 -246 -44 -68 -53 -62 -24 16 56 151 189 273 330
304 72 16 5777 20 5861 4z m1199 0 c0 -3 -10 -17 -23 -30 l-24 -25 -339 2
c-186 1 -351 3 -366 3 -29 0 -54 31 -42 51 6 11 794 10 794 -1z m-6611 -270
c102 -17 195 -71 227 -132 23 -44 17 -81 -18 -121 -46 -52 -85 -58 -129 -19
-84 73 -172 82 -251 26 -80 -57 -106 -148 -65 -236 36 -81 73 -103 167 -103
71 0 78 2 127 38 57 42 68 44 116 21 92 -44 85 -143 -15 -212 -155 -107 -368
-87 -510 46 -129 121 -164 322 -83 482 50 98 176 192 284 210 66 11 79 11 150
0z m821 -1 c229 -36 379 -241 342 -465 -29 -178 -157 -306 -332 -333 -182 -29
-359 62 -441 227 -32 63 -34 73 -34 172 0 97 2 110 31 171 37 79 116 159 191
194 42 21 106 37 168 44 6 0 39 -4 75 -10z m3554 -4 c117 -25 204 -83 227
-152 18 -57 -14 -112 -78 -134 -32 -10 -38 -8 -96 33 -58 40 -66 43 -128 43
-56 0 -72 -4 -107 -29 -94 -65 -111 -208 -34 -289 71 -75 164 -81 260 -17 65
44 90 48 132 24 97 -58 68 -169 -60 -234 -255 -129 -554 20 -602 299 -36 212
100 409 315 456 80 17 89 17 171 0z m-2964 -15 c11 -6 99 -91 196 -190 97 -99
181 -177 185 -174 5 3 9 78 9 168 0 199 1 201 112 201 64 0 72 -2 94 -28 l24
-28 0 -335 0 -336 -29 -29 c-31 -30 -69 -37 -113 -20 -13 5 -102 93 -198 195
-96 102 -178 186 -182 186 -4 0 -8 -76 -10 -170 -3 -161 -4 -171 -26 -192 -19
-19 -33 -23 -87 -23 -54 0 -68 4 -87 23 -22 22 -23 29 -31 315 -10 357 -8 389
23 422 25 27 84 34 120 15z m951 -9 c13 -10 65 -61 114 -112 182 -189 234
-239 244 -239 7 0 11 49 11 150 0 88 5 159 11 173 17 38 50 50 119 45 102 -7
97 10 105 -365 5 -237 4 -331 -5 -358 -19 -59 -93 -83 -148 -48 -15 9 -101 94
-190 190 -90 95 -168 173 -172 173 -5 0 -10 -75 -12 -166 l-3 -166 -28 -24
c-52 -44 -166 -25 -187 32 -6 14 -10 170 -10 357 0 326 0 331 22 354 28 29 94
32 129 4z m1374 5 c38 -16 55 -42 55 -85 0 -42 -18 -77 -47 -90 -14 -7 -91
-11 -193 -11 l-170 0 0 -61 0 -61 133 7 c155 8 181 1 203 -51 19 -45 11 -87
-23 -114 -23 -18 -41 -20 -169 -20 l-144 0 0 -45 0 -45 180 0 c179 0 181 0
205 -25 41 -40 26 -144 -22 -159 -10 -3 -136 -7 -281 -8 l-264 -3 -24 28 -24
28 0 344 0 344 26 20 c25 20 39 21 276 21 192 0 256 -3 283 -14z m1653 -9 c44
-40 34 -139 -17 -167 -11 -5 -60 -10 -110 -10 l-91 0 0 -264 0 -265 -24 -28
c-22 -25 -31 -28 -86 -28 -54 0 -64 3 -84 26 -22 25 -23 38 -29 235 -4 115 -5
235 -2 267 l4 57 -84 0 c-100 0 -129 9 -150 49 -18 36 -19 61 -3 97 23 51 47
54 364 51 267 -2 294 -4 312 -20z m-3548 -1143 c25 -4 51 -12 59 -18 9 -7 266
-13 840 -18 454 -4 880 -9 946 -10 l120 -3 -118 -38 c-258 -85 -565 -149 -852
-179 -278 -28 -725 -10 -1032 42 -209 36 -607 144 -661 179 -8 5 23 10 81 13
81 4 97 8 117 28 22 22 24 22 239 17 119 -4 236 -9 261 -13z"/>
<path d="M7840 6815 c0 -8 4 -15 8 -15 5 0 9 7 9 15 0 8 -4 15 -9 15 -4 0 -8
-7 -8 -15z"/>
<path d="M5545 7910 c-4 -6 -11 -8 -16 -5 -5 4 -9 1 -9 -5 0 -7 7 -9 16 -6 9
3 20 6 25 6 5 0 9 5 9 10 0 13 -17 13 -25 0z"/>
<path d="M5484 7894 c-18 -14 -18 -15 4 -4 12 6 22 13 22 15 0 8 -5 6 -26 -11z"/>
<path d="M5600 7893 c48 -8 56 -13 40 -23 -13 -9 -13 -10 0 -10 13 0 13 -1 0
-10 -20 -13 -4 -13 20 0 15 8 22 5 34 -12 9 -12 16 -17 16 -11 0 23 -73 73
-105 72 -26 -2 -27 -2 -5 -6z"/>
<path d="M5498 7873 c7 -3 16 -2 19 1 4 3 -2 6 -13 5 -11 0 -14 -3 -6 -6z"/>
<path d="M5565 7870 c28 -12 37 -12 30 0 -3 6 -16 10 -28 9 -21 0 -21 -1 -2
-9z"/>
<path d="M5426 7854 c-8 -22 -4 -25 11 -9 7 8 9 16 4 19 -5 3 -12 -1 -15 -10z"/>
<path d="M5512 7794 c1 -31 6 -58 10 -60 4 -3 8 0 8 6 0 6 5 8 12 4 8 -5 9 -2
5 10 -4 10 -7 33 -7 51 0 20 -6 35 -15 39 -13 4 -15 -4 -13 -50z"/>
<path d="M5420 7791 c0 -5 5 -13 10 -16 6 -3 10 -2 10 4 0 5 -4 13 -10 16 -5
3 -10 2 -10 -4z"/>
<path d="M5560 7755 c0 -2 9 -9 20 -15 16 -9 20 -8 20 5 0 8 -9 15 -20 15 -11
0 -20 -2 -20 -5z"/>
<path d="M5425 7650 c-2 -4 -17 -10 -32 -14 -34 -7 -69 -38 -118 -102 -21 -27
-43 -52 -49 -57 -6 -4 -44 -7 -83 -6 -59 2 -73 5 -74 18 0 12 -2 13 -6 2 -4
-11 -8 -9 -17 7 -20 38 -100 115 -133 128 -73 31 -150 9 -208 -59 l-34 -39
-34 35 c-40 43 -71 52 -125 37 -77 -20 -132 -89 -132 -166 0 -144 184 -232
267 -128 l28 36 30 -35 c92 -106 202 -100 297 16 23 29 44 54 46 57 3 3 7 -1
10 -9 2 -7 18 -28 34 -45 l30 -31 -21 36 c-12 20 -21 46 -21 58 0 19 6 21 53
21 78 0 92 -7 138 -66 22 -29 62 -67 88 -85 41 -27 52 -30 100 -25 55 5 128
45 139 76 6 16 31 35 47 35 6 0 15 4 22 8 8 5 15 -5 22 -29 6 -21 8 -41 5 -45
-2 -4 5 -6 18 -4 12 3 26 -1 31 -8 5 -7 6 -4 2 10 -3 12 -1 31 4 42 8 14 8 21
-2 25 -6 3 -3 4 8 3 16 -2 19 3 17 22 -2 15 0 21 7 16 6 -3 8 -11 5 -17 -5 -7
0 -9 14 -6 12 4 22 2 22 -2 0 -5 7 -10 15 -12 14 -3 14 -6 -1 -26 -12 -17 -21
-21 -37 -16 -19 6 -20 5 -8 -10 11 -14 11 -16 -2 -16 -8 0 -18 6 -20 13 -3 7
-6 5 -6 -5 -1 -26 36 -22 62 6 43 47 45 51 30 65 -8 7 -12 20 -9 28 3 8 -1 22
-10 30 -13 13 -13 17 -2 24 8 5 15 2 19 -8 5 -15 7 -15 17 2 11 19 11 19 12
-5 1 -23 2 -23 9 -5 8 21 -7 57 -21 49 -4 -3 -8 7 -8 23 0 23 -2 25 -11 13 -9
-13 -10 -13 -6 2 3 9 2 18 -3 20 -6 2 -5 9 0 18 8 13 10 12 10 -2 0 -10 7 -18
16 -18 8 0 12 -4 9 -10 -3 -5 -2 -10 3 -10 13 0 30 -46 35 -90 4 -32 4 -32 5
8 2 49 -32 127 -50 116 -6 -4 -8 -3 -5 3 12 19 -55 50 -110 51 -40 2 -54 -2
-62 -15 -6 -10 -11 -14 -11 -9 0 5 -11 -3 -25 -18 -26 -28 -35 -32 -35 -15 0
13 -45 59 -81 83 -29 18 -107 37 -114 26z m375 -74 c0 -2 -9 -6 -20 -9 -11 -3
-20 -1 -20 4 0 5 9 9 20 9 11 0 20 -2 20 -4z m16 -21 c-11 -8 -24 -15 -30 -15
-5 0 -1 7 10 15 10 8 24 14 29 14 6 0 1 -6 -9 -14z m-9 -31 c-3 -3 -12 -4 -19
-1 -8 3 -5 6 6 6 11 1 17 -2 13 -5z"/>
<path d="M5887 7361 c-4 -17 -3 -21 5 -13 5 5 8 16 6 23 -3 8 -7 3 -11 -10z"/>
<path d="M5795 7339 c-10 -15 1 -23 20 -15 9 3 13 10 10 16 -8 13 -22 13 -30
-1z"/>
<path d="M3570 7196 c0 -2 7 -7 16 -10 8 -3 12 -2 9 4 -6 10 -25 14 -25 6z"/>
<path d="M3470 7150 c8 -5 20 -10 25 -10 6 0 3 5 -5 10 -8 5 -19 10 -25 10 -5
0 -3 -5 5 -10z"/>
<path d="M3191 7130 c8 -4 39 -4 69 0 l55 8 -69 -1 c-37 0 -62 -3 -55 -7z"/>
<path d="M3000 7110 c-12 -8 -11 -10 7 -10 12 0 25 5 28 10 8 13 -15 13 -35 0z"/>
<path d="M2847 7032 c-26 -27 -27 -42 -3 -42 7 0 6 4 -2 8 -9 6 -6 14 12 29
13 12 28 18 32 15 4 -4 4 -1 0 6 -9 16 -8 16 -39 -16z"/>
<path d="M2810 6976 c0 -2 7 -7 16 -10 8 -3 12 -2 9 4 -6 10 -25 14 -25 6z"/>
<path d="M2776 6947 c3 -10 9 -15 12 -12 3 3 0 11 -7 18 -10 9 -11 8 -5 -6z"/>
<path d="M2776 6893 c-6 -14 -5 -15 5 -6 7 7 10 15 7 18 -3 3 -9 -2 -12 -12z"/>
<path d="M2708 6813 c-4 -41 -4 -127 -1 -110 3 9 9 17 15 17 7 0 6 5 -2 15 -8
9 -10 28 -5 55 4 22 4 40 1 40 -3 0 -7 -8 -8 -17z"/>
<path d="M2901 6814 c0 -11 3 -14 6 -6 3 7 2 16 -1 19 -3 4 -6 -2 -5 -13z"/>
<path d="M2883 6765 c0 -27 2 -38 4 -22 2 15 2 37 0 50 -2 12 -4 0 -4 -28z"/>
<path d="M2801 6464 c0 -11 3 -14 6 -6 3 7 2 16 -1 19 -3 4 -6 -2 -5 -13z"/>
<path d="M2830 6309 c0 -5 5 -7 10 -4 6 3 10 8 10 11 0 2 -4 4 -10 4 -5 0 -10
-5 -10 -11z"/>
<path d="M6493 7240 c-49 -11 -83 -37 -83 -64 0 -49 8 -56 74 -57 33 -1 75 -4
91 -8 63 -15 104 34 71 84 -9 13 -24 28 -33 33 -28 14 -85 20 -120 12z"/>
<path d="M6461 7056 c-48 -27 -63 -84 -36 -136 47 -91 185 -53 185 50 0 78
-80 124 -149 86z"/>
<path d="M6622 6916 c-33 -31 -37 -40 -36 -80 2 -117 127 -167 203 -80 70 79
15 194 -94 194 -26 0 -45 -9 -73 -34z"/>
<path d="M6663 6598 c-11 -13 -30 -41 -41 -63 -23 -46 -59 -81 -119 -118 -64
-40 -70 -93 -13 -117 96 -40 279 125 280 252 0 63 -66 91 -107 46z"/>
<path d="M3614 6730 c-31 -12 -64 -59 -64 -89 0 -14 9 -41 20 -59 52 -86 173
-56 187 47 5 36 2 44 -30 76 -36 36 -68 43 -113 25z"/>
<path d="M3607 6372 c-33 -36 -15 -92 45 -148 45 -43 69 -54 117 -54 46 0 81
26 81 60 0 23 -42 70 -63 70 -7 0 -37 20 -66 45 -57 48 -88 56 -114 27z"/>
<path d="M3040 4070 c0 -5 5 -10 10 -10 6 0 10 5 10 10 0 6 -4 10 -10 10 -5 0
-10 -4 -10 -10z"/>
<path d="M5189 4171 c-18 -14 -24 -29 -24 -61 0 -50 30 -80 79 -80 50 0 76 24
76 71 0 75 -76 115 -131 70z"/>
<path d="M3484 2794 c-65 -42 -89 -86 -89 -163 1 -78 19 -118 71 -158 52 -39
145 -45 203 -12 75 42 113 126 97 214 -8 43 -68 113 -113 132 -53 22 -123 17
-169 -13z"/>
</g>
</svg>
