<?xml version="1.0" standalone="no"?>
<!DOCTYPE svg PUBLIC "-//W3C//DTD SVG 20010904//EN"
 "http://www.w3.org/TR/2001/REC-SVG-20010904/DTD/svg10.dtd">
<svg version="1.0" xmlns="http://www.w3.org/2000/svg"
 width="200.000000pt" height="200.000000pt" viewBox="0 0 200.000000 200.000000"
 preserveAspectRatio="xMidYMid meet">

<g transform="translate(0.000000,200.000000) scale(0.100000,-0.100000)"
fill="#000000" stroke="none">
<path d="M805 1886 c-78 -19 -141 -54 -206 -113 -68 -64 -112 -135 -134 -218
-17 -66 -21 -225 -5 -225 6 0 10 15 10 34 0 106 52 235 124 310 56 57 109 90
187 116 57 19 80 21 239 18 152 -3 182 -7 230 -26 159 -63 266 -210 278 -379
3 -53 8 -73 18 -73 11 0 14 18 13 78 -1 238 -137 420 -356 477 -70 18 -324 19
-398 1z"/>
<path d="M817 1760 c-153 -39 -273 -172 -298 -334 -13 -79 -8 -96 26 -96 20 0
25 5 25 25 0 33 29 33 59 1 26 -27 100 -62 176 -82 70 -19 75 -18 75 15 0 17
5 33 10 36 6 4 46 -11 88 -33 202 -105 423 -133 487 -61 42 45 23 244 -31 337
-41 69 -108 130 -182 165 -66 31 -69 32 -232 34 -91 1 -182 -2 -203 -7z"/>
<path d="M612 1121 c3 -165 6 -193 26 -243 29 -71 99 -151 169 -190 42 -23 53
-35 53 -55 0 -30 -16 -62 -44 -84 -17 -14 -19 -20 -9 -42 7 -15 32 -36 55 -49
36 -19 58 -23 138 -23 82 0 101 3 136 24 23 13 48 34 54 47 12 21 9 27 -19 59
-43 49 -42 89 2 111 140 71 217 207 217 383 l0 88 -97 6 c-105 6 -179 26 -300
82 l-73 34 0 -25 c0 -14 -7 -27 -15 -30 -25 -10 -162 26 -231 60 l-66 33 4
-186z"/>
<path d="M443 1278 c-68 -33 -71 -231 -5 -267 12 -6 46 -11 76 -11 l56 0 0
145 0 145 -52 -1 c-29 0 -63 -5 -75 -11z"/>
<path d="M1518 1240 c-10 -25 -30 -48 -52 -61 l-36 -21 0 -79 0 -79 60 0 c51
0 65 4 85 25 23 22 25 32 25 118 0 85 -2 96 -23 115 -32 30 -39 28 -59 -18z"/>
<path d="M543 515 c-136 -14 -205 -42 -250 -101 -19 -26 -113 -279 -113 -306
0 -4 369 -8 820 -8 451 0 820 4 820 8 0 27 -94 280 -113 306 -47 61 -112 86
-265 101 -195 20 -188 21 -208 -20 -68 -145 -399 -146 -468 -1 -20 42 -19 42
-223 21z"/>
</g>
</svg>
